<mxfile host="app.diagrams.net" modified="2023-08-16T11:56:47.640Z" agent="Mozilla/5.0 (Windows NT 10.0; Win64; x64) AppleWebKit/537.36 (KHTML, like Gecko) Chrome/115.0.0.0 Safari/537.36 Edg/115.0.1901.203" etag="tl-c8nr95oSMGt3ER8gY" version="21.6.8" type="device">
  <diagram name="Страница 1" id="Ur-VqEtqYLCM_xhayaAX">
    <mxGraphModel dx="996" dy="573" grid="1" gridSize="10" guides="1" tooltips="1" connect="1" arrows="1" fold="1" page="1" pageScale="1" pageWidth="827" pageHeight="1169" math="0" shadow="0">
      <root>
        <mxCell id="0" />
        <mxCell id="1" parent="0" />
        <mxCell id="BVpv5kjBfL3_7VJqEK2w-1" value="" style="ellipse;whiteSpace=wrap;html=1;aspect=fixed;fillColor=#e1d5e7;strokeColor=#9673a6;" parent="1" vertex="1">
          <mxGeometry x="591" y="270" width="80" height="80" as="geometry" />
        </mxCell>
        <mxCell id="BVpv5kjBfL3_7VJqEK2w-2" value="" style="ellipse;whiteSpace=wrap;html=1;aspect=fixed;" parent="1" vertex="1">
          <mxGeometry x="391" y="270" width="80" height="80" as="geometry" />
        </mxCell>
        <mxCell id="BVpv5kjBfL3_7VJqEK2w-3" value="" style="ellipse;whiteSpace=wrap;html=1;aspect=fixed;" parent="1" vertex="1">
          <mxGeometry x="161" y="270" width="80" height="80" as="geometry" />
        </mxCell>
        <mxCell id="BVpv5kjBfL3_7VJqEK2w-4" value="" style="ellipse;whiteSpace=wrap;html=1;aspect=fixed;" parent="1" vertex="1">
          <mxGeometry x="591" y="410" width="80" height="80" as="geometry" />
        </mxCell>
        <mxCell id="BVpv5kjBfL3_7VJqEK2w-5" value="" style="ellipse;whiteSpace=wrap;html=1;aspect=fixed;" parent="1" vertex="1">
          <mxGeometry x="391" y="410" width="80" height="80" as="geometry" />
        </mxCell>
        <mxCell id="BVpv5kjBfL3_7VJqEK2w-6" value="" style="ellipse;whiteSpace=wrap;html=1;aspect=fixed;" parent="1" vertex="1">
          <mxGeometry x="161" y="410" width="80" height="80" as="geometry" />
        </mxCell>
        <mxCell id="BVpv5kjBfL3_7VJqEK2w-7" value="" style="endArrow=classic;html=1;rounded=0;exitX=1;exitY=0.5;exitDx=0;exitDy=0;entryX=0;entryY=0.5;entryDx=0;entryDy=0;" parent="1" source="BVpv5kjBfL3_7VJqEK2w-3" target="BVpv5kjBfL3_7VJqEK2w-2" edge="1">
          <mxGeometry width="50" height="50" relative="1" as="geometry">
            <mxPoint x="331" y="450" as="sourcePoint" />
            <mxPoint x="381" y="400" as="targetPoint" />
          </mxGeometry>
        </mxCell>
        <mxCell id="BVpv5kjBfL3_7VJqEK2w-8" value="" style="endArrow=classic;html=1;rounded=0;exitX=1;exitY=0.5;exitDx=0;exitDy=0;entryX=0;entryY=0.5;entryDx=0;entryDy=0;" parent="1" source="BVpv5kjBfL3_7VJqEK2w-2" target="BVpv5kjBfL3_7VJqEK2w-1" edge="1">
          <mxGeometry width="50" height="50" relative="1" as="geometry">
            <mxPoint x="331" y="450" as="sourcePoint" />
            <mxPoint x="381" y="400" as="targetPoint" />
          </mxGeometry>
        </mxCell>
        <mxCell id="BVpv5kjBfL3_7VJqEK2w-9" value="" style="endArrow=classic;html=1;rounded=0;exitX=0.5;exitY=0;exitDx=0;exitDy=0;entryX=0.5;entryY=1;entryDx=0;entryDy=0;" parent="1" source="BVpv5kjBfL3_7VJqEK2w-5" target="BVpv5kjBfL3_7VJqEK2w-2" edge="1">
          <mxGeometry width="50" height="50" relative="1" as="geometry">
            <mxPoint x="341" y="440" as="sourcePoint" />
            <mxPoint x="381" y="400" as="targetPoint" />
          </mxGeometry>
        </mxCell>
        <mxCell id="BVpv5kjBfL3_7VJqEK2w-10" value="" style="endArrow=classic;html=1;rounded=0;exitX=1;exitY=0.5;exitDx=0;exitDy=0;entryX=0;entryY=0.5;entryDx=0;entryDy=0;" parent="1" source="BVpv5kjBfL3_7VJqEK2w-5" target="BVpv5kjBfL3_7VJqEK2w-4" edge="1">
          <mxGeometry width="50" height="50" relative="1" as="geometry">
            <mxPoint x="331" y="450" as="sourcePoint" />
            <mxPoint x="381" y="400" as="targetPoint" />
          </mxGeometry>
        </mxCell>
        <mxCell id="BVpv5kjBfL3_7VJqEK2w-11" value="" style="endArrow=classic;html=1;rounded=0;exitX=0.5;exitY=0;exitDx=0;exitDy=0;entryX=0.5;entryY=1;entryDx=0;entryDy=0;" parent="1" source="BVpv5kjBfL3_7VJqEK2w-4" target="BVpv5kjBfL3_7VJqEK2w-1" edge="1">
          <mxGeometry width="50" height="50" relative="1" as="geometry">
            <mxPoint x="331" y="450" as="sourcePoint" />
            <mxPoint x="381" y="400" as="targetPoint" />
          </mxGeometry>
        </mxCell>
        <mxCell id="BVpv5kjBfL3_7VJqEK2w-12" value="" style="endArrow=classic;html=1;rounded=0;exitX=1;exitY=0.5;exitDx=0;exitDy=0;entryX=0;entryY=0.5;entryDx=0;entryDy=0;" parent="1" source="BVpv5kjBfL3_7VJqEK2w-6" target="BVpv5kjBfL3_7VJqEK2w-5" edge="1">
          <mxGeometry width="50" height="50" relative="1" as="geometry">
            <mxPoint x="331" y="450" as="sourcePoint" />
            <mxPoint x="381" y="400" as="targetPoint" />
          </mxGeometry>
        </mxCell>
        <mxCell id="BVpv5kjBfL3_7VJqEK2w-13" value="" style="endArrow=classic;html=1;rounded=0;exitX=0.5;exitY=0;exitDx=0;exitDy=0;" parent="1" source="BVpv5kjBfL3_7VJqEK2w-6" edge="1">
          <mxGeometry width="50" height="50" relative="1" as="geometry">
            <mxPoint x="331" y="450" as="sourcePoint" />
            <mxPoint x="201" y="350" as="targetPoint" />
          </mxGeometry>
        </mxCell>
        <mxCell id="BVpv5kjBfL3_7VJqEK2w-14" value="" style="ellipse;whiteSpace=wrap;html=1;aspect=fixed;" parent="1" vertex="1">
          <mxGeometry x="161" y="550" width="80" height="80" as="geometry" />
        </mxCell>
        <mxCell id="BVpv5kjBfL3_7VJqEK2w-15" value="" style="ellipse;whiteSpace=wrap;html=1;aspect=fixed;" parent="1" vertex="1">
          <mxGeometry x="391" y="550" width="80" height="80" as="geometry" />
        </mxCell>
        <mxCell id="BVpv5kjBfL3_7VJqEK2w-16" value="" style="ellipse;whiteSpace=wrap;html=1;aspect=fixed;" parent="1" vertex="1">
          <mxGeometry x="591" y="550" width="80" height="80" as="geometry" />
        </mxCell>
        <mxCell id="BVpv5kjBfL3_7VJqEK2w-17" value="" style="ellipse;whiteSpace=wrap;html=1;aspect=fixed;fillColor=#ffe6cc;strokeColor=#d79b00;" parent="1" vertex="1">
          <mxGeometry x="161" y="660" width="80" height="80" as="geometry" />
        </mxCell>
        <mxCell id="BVpv5kjBfL3_7VJqEK2w-18" value="" style="ellipse;whiteSpace=wrap;html=1;aspect=fixed;" parent="1" vertex="1">
          <mxGeometry x="391" y="660" width="80" height="80" as="geometry" />
        </mxCell>
        <mxCell id="BVpv5kjBfL3_7VJqEK2w-19" value="" style="ellipse;whiteSpace=wrap;html=1;aspect=fixed;" parent="1" vertex="1">
          <mxGeometry x="591" y="660" width="80" height="80" as="geometry" />
        </mxCell>
        <mxCell id="BVpv5kjBfL3_7VJqEK2w-20" value="" style="endArrow=classic;html=1;rounded=0;exitX=0.5;exitY=0;exitDx=0;exitDy=0;entryX=0.5;entryY=1;entryDx=0;entryDy=0;" parent="1" source="BVpv5kjBfL3_7VJqEK2w-14" target="BVpv5kjBfL3_7VJqEK2w-6" edge="1">
          <mxGeometry width="50" height="50" relative="1" as="geometry">
            <mxPoint x="331" y="590" as="sourcePoint" />
            <mxPoint x="381" y="540" as="targetPoint" />
          </mxGeometry>
        </mxCell>
        <mxCell id="BVpv5kjBfL3_7VJqEK2w-21" value="" style="endArrow=classic;html=1;rounded=0;exitX=1;exitY=0.5;exitDx=0;exitDy=0;entryX=0;entryY=0.5;entryDx=0;entryDy=0;" parent="1" source="BVpv5kjBfL3_7VJqEK2w-14" target="BVpv5kjBfL3_7VJqEK2w-15" edge="1">
          <mxGeometry width="50" height="50" relative="1" as="geometry">
            <mxPoint x="331" y="590" as="sourcePoint" />
            <mxPoint x="381" y="540" as="targetPoint" />
          </mxGeometry>
        </mxCell>
        <mxCell id="BVpv5kjBfL3_7VJqEK2w-22" value="" style="endArrow=classic;html=1;rounded=0;exitX=0.5;exitY=0;exitDx=0;exitDy=0;entryX=0.5;entryY=1;entryDx=0;entryDy=0;" parent="1" source="BVpv5kjBfL3_7VJqEK2w-15" target="BVpv5kjBfL3_7VJqEK2w-5" edge="1">
          <mxGeometry width="50" height="50" relative="1" as="geometry">
            <mxPoint x="331" y="590" as="sourcePoint" />
            <mxPoint x="381" y="540" as="targetPoint" />
          </mxGeometry>
        </mxCell>
        <mxCell id="BVpv5kjBfL3_7VJqEK2w-23" value="" style="endArrow=classic;html=1;rounded=0;exitX=0.5;exitY=0;exitDx=0;exitDy=0;entryX=0.5;entryY=1;entryDx=0;entryDy=0;" parent="1" source="BVpv5kjBfL3_7VJqEK2w-16" target="BVpv5kjBfL3_7VJqEK2w-4" edge="1">
          <mxGeometry width="50" height="50" relative="1" as="geometry">
            <mxPoint x="331" y="590" as="sourcePoint" />
            <mxPoint x="381" y="540" as="targetPoint" />
          </mxGeometry>
        </mxCell>
        <mxCell id="BVpv5kjBfL3_7VJqEK2w-24" value="" style="endArrow=classic;html=1;rounded=0;exitX=1;exitY=0.5;exitDx=0;exitDy=0;entryX=0;entryY=0.5;entryDx=0;entryDy=0;" parent="1" source="BVpv5kjBfL3_7VJqEK2w-15" target="BVpv5kjBfL3_7VJqEK2w-16" edge="1">
          <mxGeometry width="50" height="50" relative="1" as="geometry">
            <mxPoint x="331" y="590" as="sourcePoint" />
            <mxPoint x="381" y="540" as="targetPoint" />
          </mxGeometry>
        </mxCell>
        <mxCell id="BVpv5kjBfL3_7VJqEK2w-25" value="" style="endArrow=classic;html=1;rounded=0;exitX=1;exitY=0.5;exitDx=0;exitDy=0;entryX=0;entryY=0.5;entryDx=0;entryDy=0;" parent="1" source="BVpv5kjBfL3_7VJqEK2w-17" target="BVpv5kjBfL3_7VJqEK2w-18" edge="1">
          <mxGeometry width="50" height="50" relative="1" as="geometry">
            <mxPoint x="331" y="590" as="sourcePoint" />
            <mxPoint x="381" y="540" as="targetPoint" />
          </mxGeometry>
        </mxCell>
        <mxCell id="BVpv5kjBfL3_7VJqEK2w-26" value="" style="endArrow=classic;html=1;rounded=0;exitX=1;exitY=0.5;exitDx=0;exitDy=0;entryX=0;entryY=0.5;entryDx=0;entryDy=0;" parent="1" source="BVpv5kjBfL3_7VJqEK2w-18" target="BVpv5kjBfL3_7VJqEK2w-19" edge="1">
          <mxGeometry width="50" height="50" relative="1" as="geometry">
            <mxPoint x="331" y="590" as="sourcePoint" />
            <mxPoint x="381" y="540" as="targetPoint" />
          </mxGeometry>
        </mxCell>
        <mxCell id="BVpv5kjBfL3_7VJqEK2w-27" value="" style="endArrow=classic;html=1;rounded=0;exitX=0.5;exitY=0;exitDx=0;exitDy=0;" parent="1" source="BVpv5kjBfL3_7VJqEK2w-19" target="BVpv5kjBfL3_7VJqEK2w-16" edge="1">
          <mxGeometry width="50" height="50" relative="1" as="geometry">
            <mxPoint x="331" y="590" as="sourcePoint" />
            <mxPoint x="381" y="540" as="targetPoint" />
          </mxGeometry>
        </mxCell>
        <mxCell id="BVpv5kjBfL3_7VJqEK2w-28" value="" style="endArrow=classic;html=1;rounded=0;exitX=0.5;exitY=0;exitDx=0;exitDy=0;entryX=0.5;entryY=1;entryDx=0;entryDy=0;" parent="1" source="BVpv5kjBfL3_7VJqEK2w-17" target="BVpv5kjBfL3_7VJqEK2w-14" edge="1">
          <mxGeometry width="50" height="50" relative="1" as="geometry">
            <mxPoint x="331" y="590" as="sourcePoint" />
            <mxPoint x="381" y="540" as="targetPoint" />
          </mxGeometry>
        </mxCell>
        <mxCell id="BVpv5kjBfL3_7VJqEK2w-29" value="5" style="text;html=1;strokeColor=none;fillColor=none;align=center;verticalAlign=middle;whiteSpace=wrap;rounded=0;" parent="1" vertex="1">
          <mxGeometry x="181" y="370" width="60" height="30" as="geometry" />
        </mxCell>
        <mxCell id="BVpv5kjBfL3_7VJqEK2w-30" value="3" style="text;html=1;strokeColor=none;fillColor=none;align=center;verticalAlign=middle;whiteSpace=wrap;rounded=0;" parent="1" vertex="1">
          <mxGeometry x="181" y="510" width="60" height="30" as="geometry" />
        </mxCell>
        <mxCell id="BVpv5kjBfL3_7VJqEK2w-31" value="8" style="text;html=1;strokeColor=none;fillColor=none;align=center;verticalAlign=middle;whiteSpace=wrap;rounded=0;" parent="1" vertex="1">
          <mxGeometry x="181" y="630" width="60" height="30" as="geometry" />
        </mxCell>
        <mxCell id="BVpv5kjBfL3_7VJqEK2w-32" value="9" style="text;html=1;strokeColor=none;fillColor=none;align=center;verticalAlign=middle;whiteSpace=wrap;rounded=0;" parent="1" vertex="1">
          <mxGeometry x="285" y="670" width="60" height="30" as="geometry" />
        </mxCell>
        <mxCell id="BVpv5kjBfL3_7VJqEK2w-33" value="2" style="text;html=1;strokeColor=none;fillColor=none;align=center;verticalAlign=middle;whiteSpace=wrap;rounded=0;" parent="1" vertex="1">
          <mxGeometry x="285" y="560" width="60" height="30" as="geometry" />
        </mxCell>
        <mxCell id="BVpv5kjBfL3_7VJqEK2w-34" value="4" style="text;html=1;strokeColor=none;fillColor=none;align=center;verticalAlign=middle;whiteSpace=wrap;rounded=0;" parent="1" vertex="1">
          <mxGeometry x="285" y="420" width="60" height="30" as="geometry" />
        </mxCell>
        <mxCell id="BVpv5kjBfL3_7VJqEK2w-35" value="3" style="text;html=1;strokeColor=none;fillColor=none;align=center;verticalAlign=middle;whiteSpace=wrap;rounded=0;" parent="1" vertex="1">
          <mxGeometry x="285" y="280" width="60" height="30" as="geometry" />
        </mxCell>
        <mxCell id="BVpv5kjBfL3_7VJqEK2w-36" value="10" style="text;html=1;strokeColor=none;fillColor=none;align=center;verticalAlign=middle;whiteSpace=wrap;rounded=0;" parent="1" vertex="1">
          <mxGeometry x="501" y="280" width="60" height="30" as="geometry" />
        </mxCell>
        <mxCell id="BVpv5kjBfL3_7VJqEK2w-37" value="6" style="text;html=1;strokeColor=none;fillColor=none;align=center;verticalAlign=middle;whiteSpace=wrap;rounded=0;" parent="1" vertex="1">
          <mxGeometry x="501" y="420" width="60" height="30" as="geometry" />
        </mxCell>
        <mxCell id="BVpv5kjBfL3_7VJqEK2w-38" value="5" style="text;html=1;strokeColor=none;fillColor=none;align=center;verticalAlign=middle;whiteSpace=wrap;rounded=0;" parent="1" vertex="1">
          <mxGeometry x="501" y="560" width="60" height="30" as="geometry" />
        </mxCell>
        <mxCell id="BVpv5kjBfL3_7VJqEK2w-39" value="4" style="text;html=1;strokeColor=none;fillColor=none;align=center;verticalAlign=middle;whiteSpace=wrap;rounded=0;" parent="1" vertex="1">
          <mxGeometry x="501" y="670" width="60" height="30" as="geometry" />
        </mxCell>
        <mxCell id="BVpv5kjBfL3_7VJqEK2w-40" value="8" style="text;html=1;strokeColor=none;fillColor=none;align=center;verticalAlign=middle;whiteSpace=wrap;rounded=0;" parent="1" vertex="1">
          <mxGeometry x="591" y="630" width="60" height="30" as="geometry" />
        </mxCell>
        <mxCell id="BVpv5kjBfL3_7VJqEK2w-41" value="3" style="text;html=1;strokeColor=none;fillColor=none;align=center;verticalAlign=middle;whiteSpace=wrap;rounded=0;" parent="1" vertex="1">
          <mxGeometry x="581" y="510" width="60" height="30" as="geometry" />
        </mxCell>
        <mxCell id="BVpv5kjBfL3_7VJqEK2w-43" value="9" style="text;html=1;strokeColor=none;fillColor=none;align=center;verticalAlign=middle;whiteSpace=wrap;rounded=0;" parent="1" vertex="1">
          <mxGeometry x="371" y="370" width="60" height="30" as="geometry" />
        </mxCell>
        <mxCell id="BVpv5kjBfL3_7VJqEK2w-45" value="4" style="text;html=1;strokeColor=none;fillColor=none;align=center;verticalAlign=middle;whiteSpace=wrap;rounded=0;" parent="1" vertex="1">
          <mxGeometry x="371" y="510" width="60" height="30" as="geometry" />
        </mxCell>
        <mxCell id="BVpv5kjBfL3_7VJqEK2w-46" value="4" style="text;html=1;strokeColor=none;fillColor=none;align=center;verticalAlign=middle;whiteSpace=wrap;rounded=0;" parent="1" vertex="1">
          <mxGeometry x="571" y="360" width="60" height="30" as="geometry" />
        </mxCell>
        <mxCell id="BVpv5kjBfL3_7VJqEK2w-49" value="" style="endArrow=none;html=1;rounded=0;exitX=0;exitY=0.5;exitDx=0;exitDy=0;entryX=1;entryY=0.5;entryDx=0;entryDy=0;" parent="1" source="BVpv5kjBfL3_7VJqEK2w-3" target="BVpv5kjBfL3_7VJqEK2w-3" edge="1">
          <mxGeometry width="50" height="50" relative="1" as="geometry">
            <mxPoint x="241" y="570" as="sourcePoint" />
            <mxPoint x="291" y="520" as="targetPoint" />
          </mxGeometry>
        </mxCell>
        <mxCell id="BVpv5kjBfL3_7VJqEK2w-50" value="" style="endArrow=none;html=1;rounded=0;exitX=0;exitY=0.5;exitDx=0;exitDy=0;entryX=1;entryY=0.5;entryDx=0;entryDy=0;" parent="1" edge="1">
          <mxGeometry width="50" height="50" relative="1" as="geometry">
            <mxPoint x="161" y="449" as="sourcePoint" />
            <mxPoint x="241" y="449" as="targetPoint" />
          </mxGeometry>
        </mxCell>
        <mxCell id="BVpv5kjBfL3_7VJqEK2w-51" value="" style="endArrow=none;html=1;rounded=0;exitX=0;exitY=0.5;exitDx=0;exitDy=0;entryX=1;entryY=0.5;entryDx=0;entryDy=0;" parent="1" edge="1">
          <mxGeometry width="50" height="50" relative="1" as="geometry">
            <mxPoint x="161" y="589" as="sourcePoint" />
            <mxPoint x="241" y="589" as="targetPoint" />
          </mxGeometry>
        </mxCell>
        <mxCell id="BVpv5kjBfL3_7VJqEK2w-52" value="" style="endArrow=none;html=1;rounded=0;exitX=0;exitY=0.5;exitDx=0;exitDy=0;entryX=1;entryY=0.5;entryDx=0;entryDy=0;" parent="1" edge="1">
          <mxGeometry width="50" height="50" relative="1" as="geometry">
            <mxPoint x="161" y="699" as="sourcePoint" />
            <mxPoint x="241" y="699" as="targetPoint" />
          </mxGeometry>
        </mxCell>
        <mxCell id="BVpv5kjBfL3_7VJqEK2w-53" value="" style="endArrow=none;html=1;rounded=0;exitX=0;exitY=0.5;exitDx=0;exitDy=0;entryX=1;entryY=0.5;entryDx=0;entryDy=0;" parent="1" edge="1">
          <mxGeometry width="50" height="50" relative="1" as="geometry">
            <mxPoint x="391" y="309" as="sourcePoint" />
            <mxPoint x="471" y="309" as="targetPoint" />
          </mxGeometry>
        </mxCell>
        <mxCell id="BVpv5kjBfL3_7VJqEK2w-54" value="" style="endArrow=none;html=1;rounded=0;exitX=0;exitY=0.5;exitDx=0;exitDy=0;entryX=1;entryY=0.5;entryDx=0;entryDy=0;" parent="1" edge="1">
          <mxGeometry width="50" height="50" relative="1" as="geometry">
            <mxPoint x="591" y="309" as="sourcePoint" />
            <mxPoint x="671" y="309" as="targetPoint" />
          </mxGeometry>
        </mxCell>
        <mxCell id="BVpv5kjBfL3_7VJqEK2w-55" value="" style="endArrow=none;html=1;rounded=0;exitX=0;exitY=0.5;exitDx=0;exitDy=0;entryX=1;entryY=0.5;entryDx=0;entryDy=0;" parent="1" edge="1">
          <mxGeometry width="50" height="50" relative="1" as="geometry">
            <mxPoint x="391" y="449" as="sourcePoint" />
            <mxPoint x="471" y="449" as="targetPoint" />
          </mxGeometry>
        </mxCell>
        <mxCell id="BVpv5kjBfL3_7VJqEK2w-56" value="" style="endArrow=none;html=1;rounded=0;exitX=0;exitY=0.5;exitDx=0;exitDy=0;entryX=1;entryY=0.5;entryDx=0;entryDy=0;" parent="1" edge="1">
          <mxGeometry width="50" height="50" relative="1" as="geometry">
            <mxPoint x="591" y="449" as="sourcePoint" />
            <mxPoint x="671" y="449" as="targetPoint" />
          </mxGeometry>
        </mxCell>
        <mxCell id="BVpv5kjBfL3_7VJqEK2w-57" value="" style="endArrow=none;html=1;rounded=0;exitX=0;exitY=0.5;exitDx=0;exitDy=0;entryX=1;entryY=0.5;entryDx=0;entryDy=0;" parent="1" edge="1">
          <mxGeometry width="50" height="50" relative="1" as="geometry">
            <mxPoint x="391" y="589.5" as="sourcePoint" />
            <mxPoint x="471" y="589.5" as="targetPoint" />
          </mxGeometry>
        </mxCell>
        <mxCell id="BVpv5kjBfL3_7VJqEK2w-58" value="" style="endArrow=none;html=1;rounded=0;exitX=0;exitY=0.5;exitDx=0;exitDy=0;entryX=1;entryY=0.5;entryDx=0;entryDy=0;" parent="1" edge="1">
          <mxGeometry width="50" height="50" relative="1" as="geometry">
            <mxPoint x="591" y="589" as="sourcePoint" />
            <mxPoint x="671" y="589" as="targetPoint" />
          </mxGeometry>
        </mxCell>
        <mxCell id="BVpv5kjBfL3_7VJqEK2w-59" value="" style="endArrow=none;html=1;rounded=0;exitX=0;exitY=0.5;exitDx=0;exitDy=0;entryX=1;entryY=0.5;entryDx=0;entryDy=0;" parent="1" edge="1">
          <mxGeometry width="50" height="50" relative="1" as="geometry">
            <mxPoint x="391" y="699" as="sourcePoint" />
            <mxPoint x="471" y="699" as="targetPoint" />
          </mxGeometry>
        </mxCell>
        <mxCell id="BVpv5kjBfL3_7VJqEK2w-60" value="" style="endArrow=none;html=1;rounded=0;exitX=0;exitY=0.5;exitDx=0;exitDy=0;entryX=1;entryY=0.5;entryDx=0;entryDy=0;" parent="1" edge="1">
          <mxGeometry width="50" height="50" relative="1" as="geometry">
            <mxPoint x="591" y="699" as="sourcePoint" />
            <mxPoint x="671" y="699" as="targetPoint" />
          </mxGeometry>
        </mxCell>
        <mxCell id="BVpv5kjBfL3_7VJqEK2w-61" value="" style="endArrow=classic;html=1;rounded=0;exitX=1;exitY=0.25;exitDx=0;exitDy=0;entryX=0.5;entryY=1;entryDx=0;entryDy=0;" parent="1" target="BVpv5kjBfL3_7VJqEK2w-15" edge="1">
          <mxGeometry width="50" height="50" relative="1" as="geometry">
            <mxPoint x="431" y="657.5" as="sourcePoint" />
            <mxPoint x="291" y="520" as="targetPoint" />
          </mxGeometry>
        </mxCell>
        <mxCell id="BVpv5kjBfL3_7VJqEK2w-62" value="4" style="text;html=1;strokeColor=none;fillColor=none;align=center;verticalAlign=middle;whiteSpace=wrap;rounded=0;" parent="1" vertex="1">
          <mxGeometry x="381" y="630" width="60" height="30" as="geometry" />
        </mxCell>
        <mxCell id="BVpv5kjBfL3_7VJqEK2w-63" value="" style="ellipse;whiteSpace=wrap;html=1;aspect=fixed;fillColor=#e1d5e7;strokeColor=#9673a6;" parent="1" vertex="1">
          <mxGeometry x="591" y="840" width="80" height="80" as="geometry" />
        </mxCell>
        <mxCell id="BVpv5kjBfL3_7VJqEK2w-64" value="10&lt;br&gt;10" style="ellipse;whiteSpace=wrap;html=1;aspect=fixed;" parent="1" vertex="1">
          <mxGeometry x="391" y="840" width="80" height="80" as="geometry" />
        </mxCell>
        <mxCell id="BVpv5kjBfL3_7VJqEK2w-65" value="13&lt;br&gt;13" style="ellipse;whiteSpace=wrap;html=1;aspect=fixed;" parent="1" vertex="1">
          <mxGeometry x="161" y="840" width="80" height="80" as="geometry" />
        </mxCell>
        <mxCell id="BVpv5kjBfL3_7VJqEK2w-66" value="4&lt;br&gt;4" style="ellipse;whiteSpace=wrap;html=1;aspect=fixed;" parent="1" vertex="1">
          <mxGeometry x="591" y="980" width="80" height="80" as="geometry" />
        </mxCell>
        <mxCell id="BVpv5kjBfL3_7VJqEK2w-67" value="19&lt;br&gt;10" style="ellipse;whiteSpace=wrap;html=1;aspect=fixed;" parent="1" vertex="1">
          <mxGeometry x="391" y="980" width="80" height="80" as="geometry" />
        </mxCell>
        <mxCell id="BVpv5kjBfL3_7VJqEK2w-68" value="23&lt;br&gt;14" style="ellipse;whiteSpace=wrap;html=1;aspect=fixed;" parent="1" vertex="1">
          <mxGeometry x="161" y="980" width="80" height="80" as="geometry" />
        </mxCell>
        <mxCell id="BVpv5kjBfL3_7VJqEK2w-69" value="" style="endArrow=classic;html=1;rounded=0;exitX=1;exitY=0.5;exitDx=0;exitDy=0;entryX=0;entryY=0.5;entryDx=0;entryDy=0;" parent="1" source="BVpv5kjBfL3_7VJqEK2w-65" target="BVpv5kjBfL3_7VJqEK2w-64" edge="1">
          <mxGeometry width="50" height="50" relative="1" as="geometry">
            <mxPoint x="331" y="1020" as="sourcePoint" />
            <mxPoint x="381" y="970" as="targetPoint" />
          </mxGeometry>
        </mxCell>
        <mxCell id="BVpv5kjBfL3_7VJqEK2w-70" value="" style="endArrow=classic;html=1;rounded=0;exitX=1;exitY=0.5;exitDx=0;exitDy=0;entryX=0;entryY=0.5;entryDx=0;entryDy=0;" parent="1" source="BVpv5kjBfL3_7VJqEK2w-64" target="BVpv5kjBfL3_7VJqEK2w-63" edge="1">
          <mxGeometry width="50" height="50" relative="1" as="geometry">
            <mxPoint x="331" y="1020" as="sourcePoint" />
            <mxPoint x="381" y="970" as="targetPoint" />
          </mxGeometry>
        </mxCell>
        <mxCell id="BVpv5kjBfL3_7VJqEK2w-71" value="" style="endArrow=classic;html=1;rounded=0;exitX=0.5;exitY=0;exitDx=0;exitDy=0;entryX=0.5;entryY=1;entryDx=0;entryDy=0;" parent="1" source="BVpv5kjBfL3_7VJqEK2w-67" target="BVpv5kjBfL3_7VJqEK2w-64" edge="1">
          <mxGeometry width="50" height="50" relative="1" as="geometry">
            <mxPoint x="341" y="1010" as="sourcePoint" />
            <mxPoint x="381" y="970" as="targetPoint" />
          </mxGeometry>
        </mxCell>
        <mxCell id="BVpv5kjBfL3_7VJqEK2w-72" value="" style="endArrow=classic;html=1;rounded=0;exitX=1;exitY=0.5;exitDx=0;exitDy=0;entryX=0;entryY=0.5;entryDx=0;entryDy=0;" parent="1" source="BVpv5kjBfL3_7VJqEK2w-67" target="BVpv5kjBfL3_7VJqEK2w-66" edge="1">
          <mxGeometry width="50" height="50" relative="1" as="geometry">
            <mxPoint x="331" y="1020" as="sourcePoint" />
            <mxPoint x="381" y="970" as="targetPoint" />
          </mxGeometry>
        </mxCell>
        <mxCell id="BVpv5kjBfL3_7VJqEK2w-73" value="" style="endArrow=classic;html=1;rounded=0;exitX=0.5;exitY=0;exitDx=0;exitDy=0;entryX=0.5;entryY=1;entryDx=0;entryDy=0;fillColor=#f8cecc;strokeColor=#b85450;" parent="1" source="BVpv5kjBfL3_7VJqEK2w-66" target="BVpv5kjBfL3_7VJqEK2w-63" edge="1">
          <mxGeometry width="50" height="50" relative="1" as="geometry">
            <mxPoint x="331" y="1020" as="sourcePoint" />
            <mxPoint x="381" y="970" as="targetPoint" />
          </mxGeometry>
        </mxCell>
        <mxCell id="BVpv5kjBfL3_7VJqEK2w-74" value="" style="endArrow=classic;html=1;rounded=0;exitX=1;exitY=0.5;exitDx=0;exitDy=0;entryX=0;entryY=0.5;entryDx=0;entryDy=0;" parent="1" source="BVpv5kjBfL3_7VJqEK2w-68" target="BVpv5kjBfL3_7VJqEK2w-67" edge="1">
          <mxGeometry width="50" height="50" relative="1" as="geometry">
            <mxPoint x="331" y="1020" as="sourcePoint" />
            <mxPoint x="381" y="970" as="targetPoint" />
          </mxGeometry>
        </mxCell>
        <mxCell id="BVpv5kjBfL3_7VJqEK2w-75" value="" style="endArrow=classic;html=1;rounded=0;exitX=0.5;exitY=0;exitDx=0;exitDy=0;" parent="1" source="BVpv5kjBfL3_7VJqEK2w-68" edge="1">
          <mxGeometry width="50" height="50" relative="1" as="geometry">
            <mxPoint x="331" y="1020" as="sourcePoint" />
            <mxPoint x="201" y="920" as="targetPoint" />
          </mxGeometry>
        </mxCell>
        <mxCell id="BVpv5kjBfL3_7VJqEK2w-76" value="26&lt;br&gt;14" style="ellipse;whiteSpace=wrap;html=1;aspect=fixed;" parent="1" vertex="1">
          <mxGeometry x="161" y="1120" width="80" height="80" as="geometry" />
        </mxCell>
        <mxCell id="BVpv5kjBfL3_7VJqEK2w-77" value="23&lt;br&gt;12" style="ellipse;whiteSpace=wrap;html=1;aspect=fixed;" parent="1" vertex="1">
          <mxGeometry x="391" y="1120" width="80" height="80" as="geometry" />
        </mxCell>
        <mxCell id="BVpv5kjBfL3_7VJqEK2w-78" value="7&lt;br&gt;7" style="ellipse;whiteSpace=wrap;html=1;aspect=fixed;" parent="1" vertex="1">
          <mxGeometry x="591" y="1120" width="80" height="80" as="geometry" />
        </mxCell>
        <mxCell id="BVpv5kjBfL3_7VJqEK2w-79" value="36&lt;br&gt;22" style="ellipse;whiteSpace=wrap;html=1;aspect=fixed;fillColor=#ffe6cc;strokeColor=#d79b00;" parent="1" vertex="1">
          <mxGeometry x="161" y="1230" width="80" height="80" as="geometry" />
        </mxCell>
        <mxCell id="BVpv5kjBfL3_7VJqEK2w-80" value="27&lt;br&gt;16" style="ellipse;whiteSpace=wrap;html=1;aspect=fixed;" parent="1" vertex="1">
          <mxGeometry x="391" y="1230" width="80" height="80" as="geometry" />
        </mxCell>
        <mxCell id="BVpv5kjBfL3_7VJqEK2w-81" value="15&lt;br&gt;15" style="ellipse;whiteSpace=wrap;html=1;aspect=fixed;" parent="1" vertex="1">
          <mxGeometry x="591" y="1230" width="80" height="80" as="geometry" />
        </mxCell>
        <mxCell id="BVpv5kjBfL3_7VJqEK2w-82" value="" style="endArrow=classic;html=1;rounded=0;exitX=0.5;exitY=0;exitDx=0;exitDy=0;entryX=0.5;entryY=1;entryDx=0;entryDy=0;" parent="1" source="BVpv5kjBfL3_7VJqEK2w-76" target="BVpv5kjBfL3_7VJqEK2w-68" edge="1">
          <mxGeometry width="50" height="50" relative="1" as="geometry">
            <mxPoint x="331" y="1160" as="sourcePoint" />
            <mxPoint x="381" y="1110" as="targetPoint" />
          </mxGeometry>
        </mxCell>
        <mxCell id="BVpv5kjBfL3_7VJqEK2w-83" value="" style="endArrow=classic;html=1;rounded=0;exitX=1;exitY=0.5;exitDx=0;exitDy=0;entryX=0;entryY=0.5;entryDx=0;entryDy=0;fillColor=#f8cecc;strokeColor=#b85450;" parent="1" source="BVpv5kjBfL3_7VJqEK2w-76" target="BVpv5kjBfL3_7VJqEK2w-77" edge="1">
          <mxGeometry width="50" height="50" relative="1" as="geometry">
            <mxPoint x="331" y="1160" as="sourcePoint" />
            <mxPoint x="381" y="1110" as="targetPoint" />
          </mxGeometry>
        </mxCell>
        <mxCell id="BVpv5kjBfL3_7VJqEK2w-84" value="" style="endArrow=classic;html=1;rounded=0;exitX=0.5;exitY=0;exitDx=0;exitDy=0;entryX=0.5;entryY=1;entryDx=0;entryDy=0;" parent="1" source="BVpv5kjBfL3_7VJqEK2w-77" target="BVpv5kjBfL3_7VJqEK2w-67" edge="1">
          <mxGeometry width="50" height="50" relative="1" as="geometry">
            <mxPoint x="331" y="1160" as="sourcePoint" />
            <mxPoint x="381" y="1110" as="targetPoint" />
          </mxGeometry>
        </mxCell>
        <mxCell id="BVpv5kjBfL3_7VJqEK2w-85" value="" style="endArrow=classic;html=1;rounded=0;exitX=0.5;exitY=0;exitDx=0;exitDy=0;entryX=0.5;entryY=1;entryDx=0;entryDy=0;fillColor=#f8cecc;strokeColor=#b85450;" parent="1" source="BVpv5kjBfL3_7VJqEK2w-78" target="BVpv5kjBfL3_7VJqEK2w-66" edge="1">
          <mxGeometry width="50" height="50" relative="1" as="geometry">
            <mxPoint x="331" y="1160" as="sourcePoint" />
            <mxPoint x="381" y="1110" as="targetPoint" />
          </mxGeometry>
        </mxCell>
        <mxCell id="BVpv5kjBfL3_7VJqEK2w-86" value="" style="endArrow=classic;html=1;rounded=0;exitX=1;exitY=0.5;exitDx=0;exitDy=0;entryX=0;entryY=0.5;entryDx=0;entryDy=0;fillColor=#f8cecc;strokeColor=#b85450;" parent="1" source="BVpv5kjBfL3_7VJqEK2w-77" target="BVpv5kjBfL3_7VJqEK2w-78" edge="1">
          <mxGeometry width="50" height="50" relative="1" as="geometry">
            <mxPoint x="331" y="1160" as="sourcePoint" />
            <mxPoint x="381" y="1110" as="targetPoint" />
          </mxGeometry>
        </mxCell>
        <mxCell id="BVpv5kjBfL3_7VJqEK2w-87" value="" style="endArrow=classic;html=1;rounded=0;exitX=1;exitY=0.5;exitDx=0;exitDy=0;entryX=0;entryY=0.5;entryDx=0;entryDy=0;" parent="1" source="BVpv5kjBfL3_7VJqEK2w-79" target="BVpv5kjBfL3_7VJqEK2w-80" edge="1">
          <mxGeometry width="50" height="50" relative="1" as="geometry">
            <mxPoint x="331" y="1160" as="sourcePoint" />
            <mxPoint x="381" y="1110" as="targetPoint" />
          </mxGeometry>
        </mxCell>
        <mxCell id="BVpv5kjBfL3_7VJqEK2w-88" value="" style="endArrow=classic;html=1;rounded=0;exitX=1;exitY=0.5;exitDx=0;exitDy=0;entryX=0;entryY=0.5;entryDx=0;entryDy=0;" parent="1" source="BVpv5kjBfL3_7VJqEK2w-80" target="BVpv5kjBfL3_7VJqEK2w-81" edge="1">
          <mxGeometry width="50" height="50" relative="1" as="geometry">
            <mxPoint x="331" y="1160" as="sourcePoint" />
            <mxPoint x="381" y="1110" as="targetPoint" />
          </mxGeometry>
        </mxCell>
        <mxCell id="BVpv5kjBfL3_7VJqEK2w-89" value="" style="endArrow=classic;html=1;rounded=0;exitX=0.5;exitY=0;exitDx=0;exitDy=0;" parent="1" source="BVpv5kjBfL3_7VJqEK2w-81" target="BVpv5kjBfL3_7VJqEK2w-78" edge="1">
          <mxGeometry width="50" height="50" relative="1" as="geometry">
            <mxPoint x="331" y="1160" as="sourcePoint" />
            <mxPoint x="381" y="1110" as="targetPoint" />
          </mxGeometry>
        </mxCell>
        <mxCell id="BVpv5kjBfL3_7VJqEK2w-90" value="" style="endArrow=classic;html=1;rounded=0;exitX=0.5;exitY=0;exitDx=0;exitDy=0;entryX=0.5;entryY=1;entryDx=0;entryDy=0;fillColor=#f8cecc;strokeColor=#b85450;" parent="1" source="BVpv5kjBfL3_7VJqEK2w-79" target="BVpv5kjBfL3_7VJqEK2w-76" edge="1">
          <mxGeometry width="50" height="50" relative="1" as="geometry">
            <mxPoint x="331" y="1160" as="sourcePoint" />
            <mxPoint x="381" y="1110" as="targetPoint" />
          </mxGeometry>
        </mxCell>
        <mxCell id="BVpv5kjBfL3_7VJqEK2w-91" value="5" style="text;html=1;strokeColor=none;fillColor=none;align=center;verticalAlign=middle;whiteSpace=wrap;rounded=0;" parent="1" vertex="1">
          <mxGeometry x="181" y="940" width="60" height="30" as="geometry" />
        </mxCell>
        <mxCell id="BVpv5kjBfL3_7VJqEK2w-92" value="3" style="text;html=1;strokeColor=none;fillColor=none;align=center;verticalAlign=middle;whiteSpace=wrap;rounded=0;" parent="1" vertex="1">
          <mxGeometry x="181" y="1080" width="60" height="30" as="geometry" />
        </mxCell>
        <mxCell id="BVpv5kjBfL3_7VJqEK2w-93" value="8" style="text;html=1;strokeColor=none;fillColor=none;align=center;verticalAlign=middle;whiteSpace=wrap;rounded=0;" parent="1" vertex="1">
          <mxGeometry x="222" y="1200" width="19" height="30" as="geometry" />
        </mxCell>
        <mxCell id="BVpv5kjBfL3_7VJqEK2w-94" value="9" style="text;html=1;strokeColor=none;fillColor=none;align=center;verticalAlign=middle;whiteSpace=wrap;rounded=0;" parent="1" vertex="1">
          <mxGeometry x="285" y="1240" width="60" height="30" as="geometry" />
        </mxCell>
        <mxCell id="BVpv5kjBfL3_7VJqEK2w-95" value="2" style="text;html=1;strokeColor=none;fillColor=none;align=center;verticalAlign=middle;whiteSpace=wrap;rounded=0;" parent="1" vertex="1">
          <mxGeometry x="285" y="1130" width="60" height="30" as="geometry" />
        </mxCell>
        <mxCell id="BVpv5kjBfL3_7VJqEK2w-96" value="4" style="text;html=1;strokeColor=none;fillColor=none;align=center;verticalAlign=middle;whiteSpace=wrap;rounded=0;" parent="1" vertex="1">
          <mxGeometry x="285" y="990" width="60" height="30" as="geometry" />
        </mxCell>
        <mxCell id="BVpv5kjBfL3_7VJqEK2w-97" value="3" style="text;html=1;strokeColor=none;fillColor=none;align=center;verticalAlign=middle;whiteSpace=wrap;rounded=0;" parent="1" vertex="1">
          <mxGeometry x="285" y="850" width="60" height="30" as="geometry" />
        </mxCell>
        <mxCell id="BVpv5kjBfL3_7VJqEK2w-98" value="10" style="text;html=1;strokeColor=none;fillColor=none;align=center;verticalAlign=middle;whiteSpace=wrap;rounded=0;" parent="1" vertex="1">
          <mxGeometry x="501" y="850" width="60" height="30" as="geometry" />
        </mxCell>
        <mxCell id="BVpv5kjBfL3_7VJqEK2w-99" value="6" style="text;html=1;strokeColor=none;fillColor=none;align=center;verticalAlign=middle;whiteSpace=wrap;rounded=0;" parent="1" vertex="1">
          <mxGeometry x="501" y="990" width="60" height="30" as="geometry" />
        </mxCell>
        <mxCell id="BVpv5kjBfL3_7VJqEK2w-100" value="5" style="text;html=1;strokeColor=none;fillColor=none;align=center;verticalAlign=middle;whiteSpace=wrap;rounded=0;" parent="1" vertex="1">
          <mxGeometry x="501" y="1130" width="60" height="30" as="geometry" />
        </mxCell>
        <mxCell id="BVpv5kjBfL3_7VJqEK2w-101" value="4" style="text;html=1;strokeColor=none;fillColor=none;align=center;verticalAlign=middle;whiteSpace=wrap;rounded=0;" parent="1" vertex="1">
          <mxGeometry x="501" y="1240" width="60" height="30" as="geometry" />
        </mxCell>
        <mxCell id="BVpv5kjBfL3_7VJqEK2w-102" value="8" style="text;html=1;strokeColor=none;fillColor=none;align=center;verticalAlign=middle;whiteSpace=wrap;rounded=0;" parent="1" vertex="1">
          <mxGeometry x="591" y="1200" width="60" height="30" as="geometry" />
        </mxCell>
        <mxCell id="BVpv5kjBfL3_7VJqEK2w-103" value="3" style="text;html=1;strokeColor=none;fillColor=none;align=center;verticalAlign=middle;whiteSpace=wrap;rounded=0;" parent="1" vertex="1">
          <mxGeometry x="581" y="1080" width="60" height="30" as="geometry" />
        </mxCell>
        <mxCell id="BVpv5kjBfL3_7VJqEK2w-104" value="9" style="text;html=1;strokeColor=none;fillColor=none;align=center;verticalAlign=middle;whiteSpace=wrap;rounded=0;" parent="1" vertex="1">
          <mxGeometry x="371" y="940" width="60" height="30" as="geometry" />
        </mxCell>
        <mxCell id="BVpv5kjBfL3_7VJqEK2w-105" value="4" style="text;html=1;strokeColor=none;fillColor=none;align=center;verticalAlign=middle;whiteSpace=wrap;rounded=0;" parent="1" vertex="1">
          <mxGeometry x="371" y="1080" width="60" height="30" as="geometry" />
        </mxCell>
        <mxCell id="BVpv5kjBfL3_7VJqEK2w-106" value="4" style="text;html=1;strokeColor=none;fillColor=none;align=center;verticalAlign=middle;whiteSpace=wrap;rounded=0;" parent="1" vertex="1">
          <mxGeometry x="571" y="930" width="60" height="30" as="geometry" />
        </mxCell>
        <mxCell id="BVpv5kjBfL3_7VJqEK2w-107" value="" style="endArrow=none;html=1;rounded=0;exitX=0;exitY=0.5;exitDx=0;exitDy=0;entryX=1;entryY=0.5;entryDx=0;entryDy=0;elbow=vertical;" parent="1" source="BVpv5kjBfL3_7VJqEK2w-65" target="BVpv5kjBfL3_7VJqEK2w-65" edge="1">
          <mxGeometry width="50" height="50" relative="1" as="geometry">
            <mxPoint x="241" y="1140" as="sourcePoint" />
            <mxPoint x="291" y="1090" as="targetPoint" />
          </mxGeometry>
        </mxCell>
        <mxCell id="BVpv5kjBfL3_7VJqEK2w-108" value="" style="endArrow=none;html=1;rounded=0;exitX=0;exitY=0.5;exitDx=0;exitDy=0;entryX=1;entryY=0.5;entryDx=0;entryDy=0;" parent="1" edge="1">
          <mxGeometry width="50" height="50" relative="1" as="geometry">
            <mxPoint x="161" y="1019" as="sourcePoint" />
            <mxPoint x="241" y="1019" as="targetPoint" />
          </mxGeometry>
        </mxCell>
        <mxCell id="BVpv5kjBfL3_7VJqEK2w-109" value="" style="endArrow=none;html=1;rounded=0;exitX=0;exitY=0.5;exitDx=0;exitDy=0;entryX=1;entryY=0.5;entryDx=0;entryDy=0;" parent="1" edge="1">
          <mxGeometry width="50" height="50" relative="1" as="geometry">
            <mxPoint x="161" y="1159" as="sourcePoint" />
            <mxPoint x="241" y="1159" as="targetPoint" />
          </mxGeometry>
        </mxCell>
        <mxCell id="BVpv5kjBfL3_7VJqEK2w-110" value="" style="endArrow=none;html=1;rounded=0;exitX=0;exitY=0.5;exitDx=0;exitDy=0;entryX=1;entryY=0.5;entryDx=0;entryDy=0;" parent="1" edge="1">
          <mxGeometry width="50" height="50" relative="1" as="geometry">
            <mxPoint x="161" y="1269" as="sourcePoint" />
            <mxPoint x="241" y="1269" as="targetPoint" />
          </mxGeometry>
        </mxCell>
        <mxCell id="BVpv5kjBfL3_7VJqEK2w-111" value="" style="endArrow=none;html=1;rounded=0;exitX=0;exitY=0.5;exitDx=0;exitDy=0;entryX=1;entryY=0.5;entryDx=0;entryDy=0;" parent="1" edge="1">
          <mxGeometry width="50" height="50" relative="1" as="geometry">
            <mxPoint x="391" y="879" as="sourcePoint" />
            <mxPoint x="471" y="879" as="targetPoint" />
          </mxGeometry>
        </mxCell>
        <mxCell id="BVpv5kjBfL3_7VJqEK2w-112" value="" style="endArrow=none;html=1;rounded=0;exitX=0;exitY=0.5;exitDx=0;exitDy=0;entryX=1;entryY=0.5;entryDx=0;entryDy=0;" parent="1" edge="1">
          <mxGeometry width="50" height="50" relative="1" as="geometry">
            <mxPoint x="591" y="879" as="sourcePoint" />
            <mxPoint x="671" y="879" as="targetPoint" />
          </mxGeometry>
        </mxCell>
        <mxCell id="BVpv5kjBfL3_7VJqEK2w-113" value="" style="endArrow=none;html=1;rounded=0;exitX=0;exitY=0.5;exitDx=0;exitDy=0;entryX=1;entryY=0.5;entryDx=0;entryDy=0;" parent="1" edge="1">
          <mxGeometry width="50" height="50" relative="1" as="geometry">
            <mxPoint x="391" y="1019" as="sourcePoint" />
            <mxPoint x="471" y="1019" as="targetPoint" />
          </mxGeometry>
        </mxCell>
        <mxCell id="BVpv5kjBfL3_7VJqEK2w-114" value="" style="endArrow=none;html=1;rounded=0;exitX=0;exitY=0.5;exitDx=0;exitDy=0;entryX=1;entryY=0.5;entryDx=0;entryDy=0;" parent="1" edge="1">
          <mxGeometry width="50" height="50" relative="1" as="geometry">
            <mxPoint x="591" y="1019" as="sourcePoint" />
            <mxPoint x="671" y="1019" as="targetPoint" />
          </mxGeometry>
        </mxCell>
        <mxCell id="BVpv5kjBfL3_7VJqEK2w-115" value="" style="endArrow=none;html=1;rounded=0;exitX=0;exitY=0.5;exitDx=0;exitDy=0;entryX=1;entryY=0.5;entryDx=0;entryDy=0;" parent="1" edge="1">
          <mxGeometry width="50" height="50" relative="1" as="geometry">
            <mxPoint x="391" y="1159.5" as="sourcePoint" />
            <mxPoint x="471" y="1159.5" as="targetPoint" />
          </mxGeometry>
        </mxCell>
        <mxCell id="BVpv5kjBfL3_7VJqEK2w-116" value="" style="endArrow=none;html=1;rounded=0;exitX=0;exitY=0.5;exitDx=0;exitDy=0;entryX=1;entryY=0.5;entryDx=0;entryDy=0;" parent="1" edge="1">
          <mxGeometry width="50" height="50" relative="1" as="geometry">
            <mxPoint x="591" y="1159" as="sourcePoint" />
            <mxPoint x="671" y="1159" as="targetPoint" />
          </mxGeometry>
        </mxCell>
        <mxCell id="BVpv5kjBfL3_7VJqEK2w-117" value="" style="endArrow=none;html=1;rounded=0;exitX=0;exitY=0.5;exitDx=0;exitDy=0;entryX=1;entryY=0.5;entryDx=0;entryDy=0;" parent="1" edge="1">
          <mxGeometry width="50" height="50" relative="1" as="geometry">
            <mxPoint x="391" y="1269" as="sourcePoint" />
            <mxPoint x="471" y="1269" as="targetPoint" />
          </mxGeometry>
        </mxCell>
        <mxCell id="BVpv5kjBfL3_7VJqEK2w-118" value="" style="endArrow=none;html=1;rounded=0;exitX=0;exitY=0.5;exitDx=0;exitDy=0;entryX=1;entryY=0.5;entryDx=0;entryDy=0;" parent="1" edge="1">
          <mxGeometry width="50" height="50" relative="1" as="geometry">
            <mxPoint x="591" y="1269" as="sourcePoint" />
            <mxPoint x="671" y="1269" as="targetPoint" />
          </mxGeometry>
        </mxCell>
        <mxCell id="BVpv5kjBfL3_7VJqEK2w-119" value="" style="endArrow=classic;html=1;rounded=0;exitX=1;exitY=0.25;exitDx=0;exitDy=0;entryX=0.5;entryY=1;entryDx=0;entryDy=0;" parent="1" target="BVpv5kjBfL3_7VJqEK2w-77" edge="1">
          <mxGeometry width="50" height="50" relative="1" as="geometry">
            <mxPoint x="431" y="1227.5" as="sourcePoint" />
            <mxPoint x="291" y="1090" as="targetPoint" />
          </mxGeometry>
        </mxCell>
        <mxCell id="BVpv5kjBfL3_7VJqEK2w-120" value="4" style="text;html=1;strokeColor=none;fillColor=none;align=center;verticalAlign=middle;whiteSpace=wrap;rounded=0;" parent="1" vertex="1">
          <mxGeometry x="381" y="1200" width="60" height="30" as="geometry" />
        </mxCell>
        <mxCell id="BVpv5kjBfL3_7VJqEK2w-180" value="&lt;font style=&quot;font-size: 20px;&quot;&gt;22 / 36 * 100% = 64,7 - эффективность оптимального пути&lt;/font&gt;" style="text;html=1;strokeColor=none;fillColor=none;align=center;verticalAlign=middle;whiteSpace=wrap;rounded=0;" parent="1" vertex="1">
          <mxGeometry x="116" y="1370" width="630" height="30" as="geometry" />
        </mxCell>
        <mxCell id="uarawG9ofgU-HrqdMPVo-6" value="" style="endArrow=classic;html=1;rounded=0;fillColor=#dae8fc;strokeColor=#6c8ebf;" edge="1" parent="1">
          <mxGeometry width="50" height="50" relative="1" as="geometry">
            <mxPoint x="416" y="1020" as="sourcePoint" />
            <mxPoint x="416" y="990" as="targetPoint" />
          </mxGeometry>
        </mxCell>
        <mxCell id="uarawG9ofgU-HrqdMPVo-8" value="" style="endArrow=classic;html=1;rounded=0;fillColor=#dae8fc;strokeColor=#6c8ebf;" edge="1" parent="1">
          <mxGeometry width="50" height="50" relative="1" as="geometry">
            <mxPoint x="416" y="1040" as="sourcePoint" />
            <mxPoint x="446" y="1040" as="targetPoint" />
          </mxGeometry>
        </mxCell>
        <mxCell id="uarawG9ofgU-HrqdMPVo-9" value="" style="endArrow=classic;html=1;rounded=0;fillColor=#dae8fc;strokeColor=#6c8ebf;" edge="1" parent="1">
          <mxGeometry width="50" height="50" relative="1" as="geometry">
            <mxPoint x="416" y="1180" as="sourcePoint" />
            <mxPoint x="446" y="1180" as="targetPoint" />
          </mxGeometry>
        </mxCell>
        <mxCell id="uarawG9ofgU-HrqdMPVo-10" value="" style="endArrow=classic;html=1;rounded=0;fillColor=#dae8fc;strokeColor=#6c8ebf;" edge="1" parent="1">
          <mxGeometry width="50" height="50" relative="1" as="geometry">
            <mxPoint x="416" y="1160" as="sourcePoint" />
            <mxPoint x="416" y="1130" as="targetPoint" />
          </mxGeometry>
        </mxCell>
        <mxCell id="uarawG9ofgU-HrqdMPVo-11" value="" style="endArrow=classic;html=1;rounded=0;fillColor=#dae8fc;strokeColor=#6c8ebf;" edge="1" parent="1">
          <mxGeometry width="50" height="50" relative="1" as="geometry">
            <mxPoint x="186" y="1040" as="sourcePoint" />
            <mxPoint x="216" y="1040" as="targetPoint" />
          </mxGeometry>
        </mxCell>
        <mxCell id="uarawG9ofgU-HrqdMPVo-14" value="" style="endArrow=classic;html=1;rounded=0;fillColor=#dae8fc;strokeColor=#6c8ebf;" edge="1" parent="1">
          <mxGeometry width="50" height="50" relative="1" as="geometry">
            <mxPoint x="186" y="1000" as="sourcePoint" />
            <mxPoint x="216" y="1000" as="targetPoint" />
          </mxGeometry>
        </mxCell>
        <mxCell id="uarawG9ofgU-HrqdMPVo-18" value="" style="endArrow=classic;html=1;rounded=0;fillColor=#dae8fc;strokeColor=#6c8ebf;" edge="1" parent="1">
          <mxGeometry width="50" height="50" relative="1" as="geometry">
            <mxPoint x="416" y="1270" as="sourcePoint" />
            <mxPoint x="416" y="1240" as="targetPoint" />
          </mxGeometry>
        </mxCell>
        <mxCell id="uarawG9ofgU-HrqdMPVo-19" value="" style="endArrow=classic;html=1;rounded=0;fillColor=#dae8fc;strokeColor=#6c8ebf;" edge="1" parent="1">
          <mxGeometry width="50" height="50" relative="1" as="geometry">
            <mxPoint x="416" y="1300" as="sourcePoint" />
            <mxPoint x="416" y="1270" as="targetPoint" />
          </mxGeometry>
        </mxCell>
        <mxCell id="uarawG9ofgU-HrqdMPVo-21" value="" style="endArrow=classic;html=1;rounded=0;fillColor=#dae8fc;strokeColor=#6c8ebf;" edge="1" parent="1">
          <mxGeometry width="50" height="50" relative="1" as="geometry">
            <mxPoint x="182" y="1160" as="sourcePoint" />
            <mxPoint x="182" y="1130" as="targetPoint" />
          </mxGeometry>
        </mxCell>
        <mxCell id="uarawG9ofgU-HrqdMPVo-22" value="" style="endArrow=classic;html=1;rounded=0;fillColor=#dae8fc;strokeColor=#6c8ebf;" edge="1" parent="1">
          <mxGeometry width="50" height="50" relative="1" as="geometry">
            <mxPoint x="181" y="1180" as="sourcePoint" />
            <mxPoint x="211" y="1180" as="targetPoint" />
          </mxGeometry>
        </mxCell>
        <mxCell id="uarawG9ofgU-HrqdMPVo-23" value="" style="endArrow=classic;html=1;rounded=0;fillColor=#dae8fc;strokeColor=#6c8ebf;" edge="1" parent="1">
          <mxGeometry width="50" height="50" relative="1" as="geometry">
            <mxPoint x="181" y="1300" as="sourcePoint" />
            <mxPoint x="181" y="1270" as="targetPoint" />
          </mxGeometry>
        </mxCell>
        <mxCell id="uarawG9ofgU-HrqdMPVo-24" value="" style="endArrow=classic;html=1;rounded=0;fillColor=#dae8fc;strokeColor=#6c8ebf;" edge="1" parent="1">
          <mxGeometry width="50" height="50" relative="1" as="geometry">
            <mxPoint x="181" y="1250" as="sourcePoint" />
            <mxPoint x="211" y="1250" as="targetPoint" />
          </mxGeometry>
        </mxCell>
        <mxCell id="uarawG9ofgU-HrqdMPVo-26" value="&lt;div style=&quot;font-size: 24px;&quot;&gt;&lt;font style=&quot;font-size: 24px;&quot;&gt;Нахождение максимального и минимального путей с помощью&lt;/font&gt;&lt;/div&gt;&lt;div style=&quot;font-size: 24px;&quot;&gt;&lt;font style=&quot;font-size: 24px;&quot;&gt;алгоритма Беллмана — Форда.&lt;/font&gt;&lt;/div&gt;&lt;div style=&quot;font-size: 24px;&quot;&gt;&lt;font style=&quot;font-size: 24px;&quot;&gt;Вычисление эффективности оптимального пути&lt;/font&gt;&lt;/div&gt;" style="text;html=1;strokeColor=none;fillColor=none;align=center;verticalAlign=middle;whiteSpace=wrap;rounded=0;" vertex="1" parent="1">
          <mxGeometry x="7" width="820" height="130" as="geometry" />
        </mxCell>
        <mxCell id="uarawG9ofgU-HrqdMPVo-27" value="" style="ellipse;whiteSpace=wrap;html=1;aspect=fixed;fillColor=#e1d5e7;strokeColor=#9673a6;" vertex="1" parent="1">
          <mxGeometry x="161" y="230" width="30" height="30" as="geometry" />
        </mxCell>
        <mxCell id="uarawG9ofgU-HrqdMPVo-28" value="" style="ellipse;whiteSpace=wrap;html=1;aspect=fixed;fillColor=#ffe6cc;strokeColor=#d79b00;" vertex="1" parent="1">
          <mxGeometry x="161" y="190" width="30" height="30" as="geometry" />
        </mxCell>
        <mxCell id="uarawG9ofgU-HrqdMPVo-29" value="&lt;font style=&quot;font-size: 14px;&quot;&gt;- Начальный пункт&lt;/font&gt;" style="text;html=1;align=center;verticalAlign=middle;resizable=0;points=[];autosize=1;strokeColor=none;fillColor=none;" vertex="1" parent="1">
          <mxGeometry x="190" y="190" width="140" height="30" as="geometry" />
        </mxCell>
        <mxCell id="uarawG9ofgU-HrqdMPVo-30" value="&lt;font style=&quot;font-size: 14px;&quot;&gt;- Конечный пункт&lt;/font&gt;" style="text;html=1;align=center;verticalAlign=middle;resizable=0;points=[];autosize=1;strokeColor=none;fillColor=none;" vertex="1" parent="1">
          <mxGeometry x="190" y="230" width="130" height="30" as="geometry" />
        </mxCell>
        <mxCell id="uarawG9ofgU-HrqdMPVo-31" value="&lt;font style=&quot;font-size: 20px;&quot;&gt;Дано:&lt;/font&gt;" style="text;html=1;strokeColor=none;fillColor=none;align=center;verticalAlign=middle;whiteSpace=wrap;rounded=0;" vertex="1" parent="1">
          <mxGeometry x="146" y="140" width="60" height="30" as="geometry" />
        </mxCell>
        <mxCell id="uarawG9ofgU-HrqdMPVo-32" value="&lt;font style=&quot;font-size: 20px;&quot;&gt;Решение:&lt;/font&gt;" style="text;html=1;strokeColor=none;fillColor=none;align=center;verticalAlign=middle;whiteSpace=wrap;rounded=0;" vertex="1" parent="1">
          <mxGeometry x="130" y="790" width="60" height="30" as="geometry" />
        </mxCell>
        <mxCell id="uarawG9ofgU-HrqdMPVo-36" value="" style="ellipse;whiteSpace=wrap;html=1;aspect=fixed;fillColor=#f8cecc;strokeColor=#b85450;" vertex="1" parent="1">
          <mxGeometry x="161" y="1330" width="30" height="30" as="geometry" />
        </mxCell>
        <mxCell id="uarawG9ofgU-HrqdMPVo-37" value="&lt;font style=&quot;font-size: 14px;&quot;&gt;- Оптимальный путь&lt;/font&gt;" style="text;html=1;align=center;verticalAlign=middle;resizable=0;points=[];autosize=1;strokeColor=none;fillColor=none;" vertex="1" parent="1">
          <mxGeometry x="181" y="1330" width="160" height="30" as="geometry" />
        </mxCell>
      </root>
    </mxGraphModel>
  </diagram>
</mxfile>
